[IMG]http://www.shotpix.com/images/92598308543786181203.jpg[/IMG]

General
Complete name                            : Arash Ft. Helena - Broken Angel [Music Video] 720p [Sbyky].mp4
Format                                   : MPEG-4
Format profile                           : Base Media / Version 2
Codec ID                                 : mp42
File size                                : 49.3 MiB
Duration                                 : 3mn 22s
Overall bit rate mode                    : Variable
Overall bit rate                         : 2 040 Kbps
Encoded date                             : UTC 2013-04-09 00:26:31
Tagged date                              : UTC 2013-04-09 00:26:31

Video
ID                                       : 1
Format                                   : AVC
Format/Info                              : Advanced Video Codec
Format profile                           : High@L3.1
Format settings, CABAC                   : Yes
Format settings, ReFrames                : 1 frame
Codec ID                                 : avc1
Codec ID/Info                            : Advanced Video Coding
Duration                                 : 3mn 22s
Bit rate                                 : 1 845 Kbps
Maximum bit rate                         : 4 973 Kbps
Width                                    : 1 280 pixels
Height                                   : 720 pixels
Display aspect ratio                     : 16:9
Frame rate mode                          : Constant
Frame rate                               : 25.000 fps
Color space                              : YUV
Chroma subsampling                       : 4:2:0
Bit depth                                : 8 bits
Scan type                                : Progressive
Bits/(Pixel*Frame)                       : 0.080
Stream size                              : 44.6 MiB (90%)
Tagged date                              : UTC 2013-04-09 00:26:35

Audio
ID                                       : 2
Format                                   : AAC
Format/Info                              : Advanced Audio Codec
Format profile                           : LC
Codec ID                                 : 40
Duration                                 : 3mn 22s
Bit rate mode                            : Variable
Bit rate                                 : 192 Kbps
Maximum bit rate                         : 202 Kbps
Channel(s)                               : 2 channels
Channel positions                        : Front: L R
Sampling rate                            : 44.1 KHz
Compression mode                         : Lossy
Stream size                              : 4.64 MiB (9%)
Title                                    : IsoMedia File Produced by Google, 5-11-2011
Encoded date                             : UTC 2013-04-09 00:26:34
Tagged date                              : UTC 2013-04-09 00:26:35

Shared By Sbyky
[IMG]http://www.shotpix.com/images/76014917432015785852.gif[/IMG]
[IMG]http://www.shotpix.com/images/54100788659511547411.gif[/IMG]